<?xml version="1.0" standalone="no"?>
<!DOCTYPE svg PUBLIC "-//W3C//DTD SVG 20010904//EN"
 "http://www.w3.org/TR/2001/REC-SVG-20010904/DTD/svg10.dtd">
<svg version="1.0" xmlns="http://www.w3.org/2000/svg"
 width="512.000000pt" height="512.000000pt" viewBox="0 0 512.000000 512.000000"
 preserveAspectRatio="xMidYMid meet">
<metadata>
Created by potrace 1.14, written by Peter Selinger 2001-2017
</metadata>
<g transform="translate(0.000000,512.000000) scale(0.100000,-0.100000)"
fill="#000000" stroke="none">
<path d="M2357 5104 c-234 -42 -451 -158 -627 -334 -182 -182 -297 -398 -344
-647 l-14 -73 1188 0 1188 0 -14 73 c-72 380 -327 717 -669 882 -214 103 -480
140 -708 99z"/>
<path d="M1362 3461 c2 -159 6 -293 10 -297 4 -3 273 60 598 141 l590 147 590
-147 c325 -81 594 -144 598 -141 4 4 8 138 10 297 l3 289 -1201 0 -1201 0 3
-289z"/>
<path d="M4057 3413 c-4 -232 -8 -294 -26 -373 -11 -52 -21 -96 -21 -98 0 -2
28 -16 63 -31 136 -62 315 -79 374 -35 52 38 65 78 59 179 -13 248 -160 476
-387 604 l-57 32 -5 -278z"/>
<path d="M2010 3011 c-300 -76 -551 -139 -558 -142 -19 -6 62 -165 139 -272
166 -233 410 -395 704 -469 76 -19 117 -22 265 -22 150 0 188 3 269 23 307 76
556 250 726 506 48 72 129 225 122 231 -2 2 -989 250 -1107 278 -8 2 -260 -58
-560 -133z"/>
<path d="M69 2977 c-60 -40 -85 -124 -56 -189 7 -14 221 -259 477 -543 256
-284 466 -520 468 -524 1 -4 -53 -29 -120 -56 -155 -60 -184 -78 -208 -126
-23 -43 -25 -81 -7 -121 11 -26 1381 -1408 1395 -1408 4 0 90 167 192 370
l185 370 -320 640 c-176 352 -321 640 -322 640 -2 0 -110 -43 -240 -95 -131
-52 -241 -95 -245 -95 -4 0 -237 256 -518 569 -364 406 -520 573 -542 580 -50
18 -102 13 -139 -12z"/>
<path d="M4909 2989 c-16 -6 -236 -244 -538 -579 -281 -314 -515 -570 -519
-570 -4 0 -115 43 -246 95 -131 53 -240 95 -241 93 -2 -2 -231 -459 -509
-1015 l-506 -1013 378 0 377 0 692 693 c760 761 731 727 704 819 -19 63 -55
88 -205 148 -75 29 -135 57 -134 61 2 4 212 239 468 524 256 284 471 531 479
548 17 42 9 107 -19 147 -38 53 -114 73 -181 49z"/>
<path d="M2180 1849 c0 -13 374 -759 380 -759 6 0 380 746 380 759 0 4 -35 0
-77 -10 -134 -32 -288 -43 -415 -30 -62 6 -148 19 -190 30 -43 10 -78 14 -78
10z"/>
<path d="M521 1023 c-6 -21 -56 -220 -111 -443 -108 -430 -113 -464 -73 -519
11 -14 35 -34 54 -43 31 -17 82 -18 624 -18 l590 0 -530 530 c-291 292 -533
530 -537 530 -4 0 -12 -17 -17 -37z"/>
<path d="M4053 529 l-533 -529 588 0 c539 0 590 1 621 18 19 9 43 29 54 43 40
55 35 88 -77 539 -59 234 -110 433 -114 442 -5 13 -120 -96 -539 -513z"/>
</g>
</svg>
